# xmcd
#
# Track frame offsets: 
#        150
#        18475
#        35296
#        57415
#        76050
#        95284
#        118264
#        132035
#        150875
#        173907
#
# Disc length: 2645 seconds
#
# Revision: 0
# Processed by: cddbd v1.5.2PL0 Copyright (c) Steve Scherf et al.
# Submitted via: ExactAudioCopy v0.99pb5
#
DISCID=6e0a530a
DTITLE=Texray - High On Hiatt
DYEAR=2009
DGENRE=Blues
TTITLE0=Cry Love
TTITLE1=Riding With the King
TTITLE2=Straight Outta Time
TTITLE3=Memphis In the Meantime
TTITLE4=It'll Come to You
TTITLE5=Feels Like Rain
TTITLE6=Lift Up Every Stone
TTITLE7=Paper Thin
TTITLE8=When You Hold Me Tight
TTITLE9=I Can't Make You Love Me
EXTD=
EXTT0=
EXTT1=
EXTT2=
EXTT3=
EXTT4=
EXTT5=
EXTT6=
EXTT7=
EXTT8=
EXTT9=
PLAYORDER=
